PathFileType	4	(X/Y/Z)	C:/Users/beibeiliu/ov580/test_trc\sequence.12_training_dense_left.trc
DataRate	CameraRate	NumFrames	NumMarkers	Units	OrigDataRate	OrigDataStartFrame	OrigNumFrames
120	120	13	19	mm	120	163	324
Frame#	Time	ThumbCMC			ThumbMCP			ThumbIP			ThumbTip			IndexMCP			IndexPIP			IndexTip			MiddleMCP			MiddlePIP			MiddleTip			RingMCP			RingPIP			RingTip			PinkyMCP			PinkyPIP			PinkyTip			BackHand1			BackHand2			BackHand3	
		X0	Y0	Z0	X1	Y1	Z1	X2	Y2	Z2	X3	Y3	Z3	X4	Y4	Z4	X5	Y5	Z5	X6	Y6	Z6	X7	Y7	Z7	X8	Y8	Z8	X9	Y9	Z9	X10	Y10	Z10	X11	Y11	Z11	X12	Y12	Z12	X13	Y13	Z13	X14	Y14	Z14	X15	Y15	Z15	X16	Y16	Z16	X17	Y17	Z17	X18	Y18	Z18	
162	1.35	-239.255	34.4715	-10.8122	-229.018	34.7222	-38.632	-222.027	39.597	-56.8424	-219.14	43.9544	-75.0495	-287.677	58.3756	-42.9133	-304.467	69.2923	-61.8963	-314.822	78.7945	-78.8429	-312.389	39.8579	-32.585	-333.608	49.982	-46.6813	-352.235	53.3493	-61.2331	-316.928	20.5642	-29.7202	-334.484	21.805	-40.1496	-351.005	24.1254	-51.8548	-313.389	-5.05018	-20.5859	-328.705	-11.4565	-30.1018	-346.944	-15.3811	-42.6786	-287.98	15.0748	-0.217308	-275.291	12.5785	19.1955	-266.459	37.3403	3.95097	
163	1.35833	-244.534	36.4976	-12.339	-235.299	34.0048	-35.2698	-229.951	41.6152	-60.582	-223.809	44.7018	-75.008	-297.103	51.0227	-45.4073	-313.373	59.835	-63.4574	-323.233	66.6115	-79.1928	-317.593	32.4073	-35.0872	-338.54	34.0231	-46.593	-357.247	38.2538	-64.102	-317.709	9.81151	-28.0028	-336.698	12.4577	-40.1874	-354.587	13.4768	-55.8627	-312.522	-10.4746	-22.0045	-329.084	-17.1033	-31.2424	-342.374	-24.1195	-40.7094	-292.632	10.897	1.63335	-275.97	12.1429	20.8579	-271.761	34.4473	3.87157	
164	1.36667	-253.254	35.3939	-12.1612	-242.35	34.2351	-35.5507	-239.867	39.2376	-58.6733	-231.881	47.295	-75.1172	-306.43	46.0236	-47.4462	-320.395	52.5355	-64.7535	-331.255	54.3892	-81.2822	-321.398	24.7594	-35.5386	-345.65	23.2441	-50.106	-365.198	20.2087	-68.7803	-322.267	1.88419	-28.8657	-342.242	-1.93391	-40.2481	-354.927	-1.44478	-56.1146	-312.754	-19.9391	-19.7108	-331.007	-25.7316	-33.0222	-345.925	-33.0397	-44.2816	-295.431	4.73655	0.594474	-281.568	5.73871	23.6815	-283.028	31.7725	1.9313	
165	1.375	-260.465	36.8004	-11.9694	-251.207	34.1517	-35.4081	-247.012	40.8265	-58.9543	-241.547	46.6029	-76.034	-311.669	37.5952	-45.1757	-330.068	39.1563	-66.4638	-341.274	40.6471	-83.3996	-328.65	12.2884	-35.8199	-351.795	10.7372	-52.778	-367.269	8.41524	-71.9022	-325.767	-4.30669	-30.5515	-345.743	-11.0617	-44.0672	-356.99	-14.8278	-58.3369	-316.444	-25.6237	-21.2598	-327.627	-38.2158	-28.1228	-339.881	-44.7896	-42.4154	-301.681	-0.255369	2.95225	-288.832	5.87485	21.7149	-291.448	25.4851	4.46746	
166	1.38333	-266.955	36.3221	-11.5649	-256.106	36.1274	-34.9335	-253.071	43.9468	-57.5113	-251.348	44.0167	-75.3838	-317.587	28.3802	-45.6455	-335.437	29.8196	-67.0622	-347.013	33.5961	-87.8435	-334.647	3.37296	-37.3105	-353.412	-2.20588	-53.938	-369.417	-9.88327	-73.0269	-326.091	-18.5151	-26.6305	-342.992	-23.5027	-43.3793	-354.456	-33.8449	-57.9314	-315.222	-38.162	-19.1636	-326.428	-47.7533	-32.3793	-335.51	-60.5228	-40.248	-304.592	-6.44864	4.19878	-290.803	2.96205	23.0235	-296.09	24.3907	1.16665	
167	1.39167	-273.932	34.9506	-7.15307	-265.482	33.9409	-35.8064	-260.617	42.3893	-53.1463	-257.388	46.8426	-73.9341	-327.295	19.9691	-48.0818	-341.157	17.4544	-67.9219	-351.17	17.2156	-87.9404	-335.115	-9.72852	-36.543	-352.291	-16.397	-52.4928	-367.464	-29.4874	-72.9141	-324.099	-24.8088	-27.8339	-341.658	-37.8549	-43.0175	-351.747	-48.9931	-60.1166	-311.291	-42.4669	-18.7407	-317.029	-59.7502	-27.9323	-324.726	-74.4869	-37.784	-308.481	-12.4377	2.74248	-294.774	-3.17144	24.0097	-303.023	18.0682	1.25229	
168	1.4	-283.379	28.4543	-8.10929	-270.925	32.7412	-29.7797	-269.538	36.9452	-53.9454	-265.083	47.3646	-70.8942	-329.381	9.64041	-46.8808	-343.587	4.09533	-67.9476	-353.192	1.32538	-86.8074	-334.858	-18.8412	-38.558	-349.762	-30.5712	-53.3971	-363.53	-44.9023	-75.8899	-324.612	-38.1072	-30.7015	-336.411	-47.7332	-46.5857	-342.505	-58.8325	-60.3066	-303.948	-51.8439	-18.2153	-308.481	-69.2483	-30.7915	-311.002	-81.1059	-40.6147	-306.747	-18.4563	3.8667	-297.538	-11.2455	24.6938	-309.08	12.0662	5.38274	
169	1.40833	-288.634	29.2704	-3.63155	-279.203	27.3022	-31.0324	-277.534	33.8138	-52.5205	-273.437	42.9331	-67.0033	-330.886	-0.963457	-46.526	-343.151	-4.58339	-67.6092	-350.337	-9.25234	-86.3809	-329.518	-31.7862	-36.4915	-345.475	-42.2409	-57.2901	-353.331	-56.2964	-74.0946	-316.421	-43.902	-28.2019	-326.525	-61.633	-43.6637	-334.097	-75.281	-63.195	-297.841	-57.6185	-20.7158	-293.016	-75.189	-28.9086	-293.806	-89.3169	-39.9856	-305.288	-24.4301	3.52946	-300.554	-14.6029	27.0597	-312.72	1.03782	6.27577	
170	1.41667	-296.25	22.2792	-5.43841	-283.909	30.4604	-27.3056	-282.521	35.344	-45.5673	-280.047	42.742	-67.6554	-330.968	-12.3423	-49.0303	-339.655	-17.2134	-67.3518	-346.996	-23.1042	-88.2569	-325.887	-42.3571	-38.4391	-338.612	-53.3933	-58.5856	-340.114	-71.0557	-74.74	-311.062	-56.3157	-30.5534	-318.703	-69.6297	-48.4586	-320.712	-79.5343	-62.8554	-286.401	-62.5082	-17.451	-284.378	-74.9972	-30.46	-280.201	-92.6132	-45.3121	-300.242	-34.327	4.25517	-298.551	-24.545	27.565	-313.7	-7.23798	7.89561	
171	1.425	-299.571	18.1712	-1.37549	-286.466	23.3285	-24.7455	-285.872	29.6789	-46.6066	-284.232	38.556	-61.0516	-327.352	-19.3194	-50.0695	-332.562	-26.9571	-68.2843	-340.035	-32.3534	-90.1591	-318.538	-47.9728	-39.1551	-326.249	-60.1693	-56.4583	-329.795	-78.0242	-79.2912	-302.956	-56.9359	-30.3644	-306.365	-72.6333	-45.0957	-308.338	-87.2213	-66.7989	-277.852	-62.9956	-17.4661	-272.938	-78.7251	-31.4741	-267.86	-89.7423	-44.0253	-297.183	-41.0874	1.1548	-297.153	-28.246	29.7482	-313.319	-10.6142	7.22235	
172	1.43333	-301.444	12.2562	0.472202	-290.674	24.4178	-21.6736	-289.942	28.0548	-43.9089	-288.189	40.9306	-59.4558	-320.621	-24.9677	-46.3972	-326.344	-34.217	-68.4576	-331.807	-36.4386	-89.2592	-307.672	-52.8305	-38.9792	-316.13	-66.7025	-60.448	-314.851	-84.0889	-84.4443	-295.197	-62.9168	-33.0039	-294.864	-78.4591	-50.2012	-290.959	-90.1391	-66.7264	-266.384	-65.0641	-16.5959	-258.905	-78.8963	-32.8641	-249.809	-92.0897	-46.8161	-294.578	-42.0393	0.646993	-293.576	-35.9097	27.2138	-309.341	-22.1221	9.62489	
173	1.44167	-301.653	3.65614	1.28276	-290.877	16.2786	-22.425	-292.652	28.4294	-43.1637	-289.857	35.5346	-58.0653	-313.159	-32.9459	-47.5284	-319.07	-40.4432	-73.86	-318.625	-46.7407	-91.3062	-299.314	-56.8449	-41.2906	-303.59	-72.6095	-64.8334	-300.798	-85.0535	-88.9519	-283.042	-62.0005	-32.555	-279.121	-80.1708	-48.9564	-279.081	-88.1578	-71.6606	-258.499	-65.4702	-19.5777	-247.377	-75.1375	-34.4491	-235.207	-85.8939	-46.8647	-290.33	-45.6736	3.15712	-289.715	-39.3064	24.1853	-310.471	-26.8002	5.32025	
174	1.45	-300.744	-1.20488	1.4995	-291.49	11.7895	-21.0694	-293.638	25.769	-41.0346	-289.725	30.8364	-57.1379	-308.908	-34.0958	-48.16	-307.572	-43.9272	-74.2245	-309.274	-47.8185	-96.7903	-290.266	-59.4853	-43.7673	-289.162	-74.6071	-68.1797	-284.351	-84.4119	-87.4218	-270.404	-66.3096	-33.8413	-268.862	-76.9886	-56.1097	-261.553	-85.2949	-74.3728	-247.754	-63.5286	-19.9152	-238.267	-70.3841	-35.117	-223.703	-77.3478	-48.5486	-280.563	-53.0291	0.724202	-284.325	-45.7869	25.5648	-304.916	-33.264	6.35154	
